<svg width="51" height="51" viewBox="0 0 51 51" fill="none" xmlns="http://www.w3.org/2000/svg">
<rect width="50.8571" height="50.8571" rx="25.4286" fill="#00B0EB"/>
<path fill-rule="evenodd" clip-rule="evenodd" d="M25.4285 15.4287C22.667 15.4287 20.4285 17.6673 20.4285 20.4287C20.4285 23.1901 22.667 25.4287 25.4285 25.4287C28.1899 25.4287 30.4285 23.1901 30.4285 20.4287C30.4285 17.6673 28.1899 15.4287 25.4285 15.4287ZM22.4285 20.4287C22.4285 18.7719 23.7716 17.4287 25.4285 17.4287C27.0853 17.4287 28.4285 18.7719 28.4285 20.4287C28.4285 22.0856 27.0853 23.4287 25.4285 23.4287C23.7716 23.4287 22.4285 22.0856 22.4285 20.4287Z" fill="white"/>
<path d="M21.4285 27.4287C20.1024 27.4287 18.8306 27.9555 17.8929 28.8932C16.9553 29.8309 16.4285 31.1026 16.4285 32.4287V34.4287C16.4285 34.981 16.8762 35.4287 17.4285 35.4287C17.9808 35.4287 18.4285 34.981 18.4285 34.4287V32.4287C18.4285 31.6331 18.7445 30.87 19.3071 30.3074C19.8698 29.7448 20.6328 29.4287 21.4285 29.4287H29.4285C30.2241 29.4287 30.9872 29.7448 31.5498 30.3074C32.1124 30.87 32.4285 31.6331 32.4285 32.4287V34.4287C32.4285 34.981 32.8762 35.4287 33.4285 35.4287C33.9808 35.4287 34.4285 34.981 34.4285 34.4287V32.4287C34.4285 31.1026 33.9017 29.8309 32.964 28.8932C32.0263 27.9555 30.7545 27.4287 29.4285 27.4287H21.4285Z" fill="white"/>
</svg>
